<?xml version="1.0" encoding="utf-8"?>
<!-- Generator: Adobe Illustrator 21.0.1, SVG Export Plug-In . SVG Version: 6.00 Build 0)  -->
<svg version="1.1" id="レイヤー_1" xmlns="http://www.w3.org/2000/svg" xmlns:xlink="http://www.w3.org/1999/xlink" x="0px"
	 y="0px" viewBox="0 0 500 500" style="enable-background:new 0 0 500 500;" xml:space="preserve">
<style type="text/css">
	.st0{display:none;fill:#D1D1D1;}
	.st1{display:none;fill:#FF0000;}
	.st2{display:none;fill:#CCCCCC;}
	.st3{display:none;}
	.st4{display:inline;fill:#FFFFFF;}
	.st5{fill:#888888;}
	.st6{fill:#FFFFFF;}
	.st7{fill:none;stroke:#888888;stroke-width:13;stroke-linecap:round;stroke-linejoin:round;stroke-miterlimit:10;}
	.st8{fill:none;stroke:#FFFFFF;stroke-width:22;stroke-linecap:round;stroke-linejoin:round;stroke-miterlimit:10;}
	.st9{fill:none;stroke:#888888;stroke-width:12;stroke-linecap:round;stroke-linejoin:round;stroke-miterlimit:10;}
</style>
<path class="st0" d="M250,439.9H128.8l-10-232.1L50.9,231L21,156.2l164.5-96.1c0,10.9,28.9,19.7,64.5,19.7s64.5-8.8,64.5-19.7
	L479,156.2l-29.9,74.7l-67.9-23.2l-10,232.1C371.2,439.9,250,439.9,250,439.9L250,439.9z"/>
<path class="st1" d="M137.1,195.6l7.6-0.7c0.2,1.7,0.5,3,1,3.9c0.8,1.5,2,2.2,3.5,2.2c1.1,0,2-0.4,2.6-1.1c0.6-0.7,0.9-1.6,0.9-2.6
	c0-0.9-0.3-1.8-0.9-2.5s-1.9-1.4-4.1-2.1c-3.5-1.1-6-2.6-7.5-4.4c-1.5-1.8-2.3-4.1-2.3-7c0-1.9,0.4-3.6,1.2-5.3s1.9-2.9,3.5-3.9
	c1.5-0.9,3.7-1.4,6.3-1.4c3.3,0,5.8,0.9,7.5,2.6c1.7,1.7,2.8,4.4,3.1,8.2l-7.5,0.6c-0.2-1.6-0.6-2.8-1.3-3.5s-1.5-1.1-2.6-1.1
	c-0.9,0-1.6,0.3-2.1,0.8c-0.5,0.6-0.7,1.2-0.7,2c0,0.6,0.2,1.1,0.6,1.6c0.4,0.5,1.3,0.9,2.7,1.3c3.5,1.1,6,2.1,7.5,3.2
	s2.6,2.4,3.3,4s1,3.4,1,5.3c0,2.3-0.5,4.5-1.4,6.4c-0.9,2-2.2,3.4-3.8,4.4s-3.7,1.5-6.2,1.5c-4.4,0-7.4-1.2-9.1-3.5
	C138.3,202.2,137.3,199.2,137.1,195.6z M163.6,171.4h24.2v8.9h-8.1v27.2h-8v-27.2h-8.1L163.6,171.4L163.6,171.4z M208.2,201.6h-9.1
	l-1.3,6h-8.1l9.7-36.1h8.7l9.7,36.1h-8.4L208.2,201.6L208.2,201.6z M206.6,193.7l-2.8-13l-2.8,13H206.6z M221.3,171.4h7.4l9.7,20
	v-20h7.5v36.1h-7.5l-9.7-19.8v19.8h-7.5v-36.1H221.3z M252.3,171.4h11.8c2.3,0,4.2,0.4,5.7,1.3c1.4,0.9,2.6,2.2,3.6,3.8
	c0.9,1.7,1.6,3.6,2,5.8s0.6,4.5,0.6,7c0,3.9-0.3,6.9-0.9,9s-1.5,3.9-2.6,5.3s-2.3,2.4-3.6,2.9c-1.7,0.7-3.3,1-4.8,1h-11.8
	L252.3,171.4L252.3,171.4z M260.3,179.6v19.7h2c1.7,0,2.9-0.3,3.6-0.8s1.3-1.4,1.7-2.7c0.4-1.3,0.6-3.4,0.6-6.3
	c0-3.8-0.4-6.4-1.3-7.9c-0.9-1.4-2.4-2.1-4.4-2.1h-2.2L260.3,179.6z M297,201.6h-9l-1.3,6h-8.1l9.7-36.1h8.7l9.7,36.1h-8.4
	L297,201.6L297,201.6z M295.4,193.7l-2.8-13l-2.8,13H295.4L295.4,193.7z M310.2,207.5v-36.1h13.3c2.5,0,4.3,0.3,5.7,0.9
	c1.3,0.6,2.4,1.7,3.2,3.3c0.8,1.6,1.2,3.6,1.2,5.9c0,2-0.3,3.7-0.9,5.2s-1.5,2.6-2.5,3.5c-0.7,0.6-1.6,1.1-2.8,1.4
	c1,0.4,1.6,0.9,2.1,1.3c0.3,0.3,0.7,0.9,1.3,1.9c0.6,1,0.9,1.7,1.1,2.2l3.9,10.5h-9l-4.3-11c-0.5-1.4-1-2.4-1.4-2.8
	c-0.6-0.6-1.2-0.8-2-0.8h-0.7v14.7L310.2,207.5L310.2,207.5z M318.2,186h3.4c0.4,0,1.1-0.2,2.1-0.5c0.5-0.1,1-0.5,1.3-1.1
	s0.5-1.3,0.5-2.1c0-1.2-0.3-2.1-0.8-2.7c-0.5-0.6-1.5-0.9-3-0.9h-3.5V186z M339.2,171.4H351c2.3,0,4.2,0.4,5.7,1.3
	c1.4,0.9,2.6,2.2,3.6,3.8c0.9,1.7,1.6,3.6,2,5.8s0.6,4.5,0.6,7c0,3.9-0.3,6.9-0.9,9s-1.5,3.9-2.6,5.3s-2.3,2.4-3.6,2.9
	c-1.7,0.7-3.3,1-4.8,1h-11.8L339.2,171.4L339.2,171.4z M347.1,179.6v19.7h2c1.7,0,2.9-0.3,3.6-0.8s1.3-1.4,1.7-2.7
	c0.4-1.3,0.6-3.4,0.6-6.3c0-3.8-0.4-6.4-1.3-7.9c-0.9-1.4-2.4-2.1-4.4-2.1h-2.2L347.1,179.6z"/>
<rect class="st2" width="500" height="500"/>
<g class="st3">
	<path class="st4" d="M94.8,205l-1,4.6H61l-4.4,20.6h30.6l-1,4.6H55.6l-4.8,22.6h33.6l-1,4.6h-39l12.1-57H94.8z"/>
	<path class="st4" d="M104.9,220.8l-1.6,7.2l0.2,0.2c1.5-2.4,3.5-4.4,6.1-6.1c2.6-1.7,5.4-2.5,8.5-2.5c2.9,0,5.2,0.7,7,2.2
		s2.8,3.7,3,6.6h0.2c1.6-2.6,3.6-4.7,6.1-6.3c2.5-1.7,5.3-2.5,8.4-2.5c4,0,6.9,1,8.7,3s2.7,4.6,2.7,7.8c0,0.7-0.1,1.5-0.2,2.3
		c-0.1,0.8-0.2,1.6-0.4,2.4l-5.8,26.9h-5l5.8-27c0.3-1.4,0.5-2.8,0.5-4.2c0-2-0.6-3.7-1.9-5c-1.3-1.3-3.2-2-6-2
		c-2.2,0-4.1,0.5-5.7,1.5c-1.6,1-3,2.4-4.2,4.1c-1.2,1.7-2.2,3.8-3,6.1s-1.5,4.8-2.1,7.5l-4.1,19h-5l5.8-26.9c0.3-1.4,0.5-2.7,0.5-4
		c0-2-0.5-3.8-1.6-5.2s-2.9-2.2-5.3-2.2c-1.8,0-3.5,0.5-5.2,1.4s-3.1,2.1-4.5,3.7c-1.3,1.5-2.5,3.4-3.5,5.5s-1.7,4.4-2.3,6.8
		l-4.5,21h-5l8.8-41.3H104.9z"/>
	<path class="st4" d="M174.3,220.8l-1.6,7.4h0.2c1.8-2.7,3.8-4.8,6.1-6.4c2.3-1.5,5.3-2.3,8.9-2.3c2.7,0,5,0.4,6.9,1.2
		s3.6,2,4.9,3.4c1.3,1.5,2.3,3.2,2.9,5.3c0.6,2.1,1,4.4,1,6.9c0,3.2-0.5,6.4-1.6,9.6c-1,3.2-2.5,6-4.5,8.6c-2,2.5-4.3,4.6-7.1,6.2
		s-5.9,2.4-9.4,2.4c-1.6,0-3.1-0.2-4.6-0.5s-2.8-0.9-4-1.6s-2.2-1.7-3-2.9c-0.8-1.2-1.3-2.6-1.6-4.3h-0.2l-5,23.4h-5l12.1-56.5
		L174.3,220.8L174.3,220.8z M179.8,226c-2.2,1.5-4.1,3.3-5.6,5.6s-2.7,4.8-3.5,7.5s-1.2,5.4-1.2,8c0,3.7,1,6.6,3,8.7
		s4.8,3.2,8.5,3.2c2.9,0,5.4-0.7,7.6-2.2c2.2-1.4,4.1-3.3,5.5-5.5c1.5-2.2,2.6-4.7,3.3-7.4s1.1-5.3,1.1-7.8c0-3.5-0.9-6.5-2.7-8.8
		s-4.6-3.5-8.4-3.5C184.6,223.8,182,224.6,179.8,226z"/>
	<path class="st4" d="M220.5,220.8l2.6-12.5h5l-2.6,12.5h8.2L233,225h-8.4l-5.7,26.5c-0.2,1-0.4,1.7-0.4,2.2s-0.1,1.1-0.1,1.7
		c0,0.7,0.2,1.4,0.6,2c0.4,0.6,1.1,0.9,2,0.9c2,0,3.9-0.2,5.9-0.5l-0.9,4.3c-0.9,0.1-1.7,0.2-2.6,0.2c-0.9,0.1-1.7,0.1-2.6,0.1
		c-1,0-1.9-0.1-2.8-0.2c-0.9-0.1-1.7-0.4-2.4-0.8s-1.3-1-1.7-1.8s-0.6-1.8-0.6-3c0-0.4,0-1,0.1-1.8c0.1-0.7,0.2-1.6,0.4-2.5
		l5.7-27.4h-7.4l1-4.2L220.5,220.8L220.5,220.8z"/>
	<path class="st4" d="M236.6,273c1.5,0,2.9-0.5,3.9-1.4c1.1-1,1.9-2,2.6-3l3.8-6.5l-7.6-41.3h5.3l5.9,35h0.2l19-35h5.4l-29.4,51
		c-2.1,3.7-5.5,5.5-10,5.5c-0.7,0-1.4-0.1-2.1-0.2c-0.7-0.1-1.5-0.2-2.2-0.2l1-4.1C233.8,273,235.2,273,236.6,273z"/>
	<path class="st4" d="M344.9,212.1c-2.9-2.5-6.7-3.7-11.5-3.7c-4.3,0-8.1,0.9-11.2,2.7c-3.2,1.8-5.8,4.1-8,7
		c-2.1,2.9-3.7,6.2-4.8,9.9c-1,3.7-1.6,7.5-1.6,11.4c0,2.9,0.4,5.6,1.3,7.9c0.9,2.3,2.1,4.4,3.7,6c1.6,1.7,3.6,3,6,3.9
		c2.3,0.9,5,1.4,7.9,1.4c2.2,0,4.4-0.4,6.4-1.1c2.1-0.7,3.9-1.8,5.6-3.2s3.1-3.1,4.4-5.1s2.2-4.2,2.9-6.7h5.4
		c-0.6,2.9-1.7,5.7-3,8.2c-1.4,2.5-3.1,4.7-5.3,6.6s-4.6,3.3-7.5,4.3s-6.2,1.6-9.8,1.6c-3.7,0-7.1-0.6-10-1.8
		c-2.9-1.2-5.4-2.8-7.4-4.9s-3.5-4.7-4.6-7.6c-1-3-1.6-6.3-1.6-9.9c0-4.6,0.7-9,2.1-13.2s3.4-8,6.1-11.2c2.7-3.3,5.9-5.9,9.8-7.8
		c3.8-1.9,8.2-2.9,13.1-2.9c3,0,5.8,0.4,8.4,1.2s4.8,2,6.7,3.6c1.9,1.6,3.4,3.6,4.5,6s1.7,5.2,1.7,8.4h-5.4
		C349.3,218.2,347.8,214.5,344.9,212.1z"/>
	<path class="st4" d="M365.5,227c1-1.7,2.3-3.1,3.9-4.2c1.5-1.1,3.3-1.9,5.3-2.4s4.1-0.8,6.2-0.8c1.4,0,2.9,0.1,4.6,0.4
		c1.7,0.3,3.2,0.7,4.7,1.4c1.4,0.7,2.6,1.6,3.6,2.8s1.4,2.7,1.4,4.6c0,1-0.1,2.1-0.3,3.4c-0.2,1.2-0.4,2.5-0.7,3.7
		c-0.3,1.3-0.5,2.5-0.8,3.7s-0.5,2.3-0.8,3.2c-0.5,2.3-0.9,4.2-1.2,5.7c-0.3,1.5-0.6,2.8-0.8,3.8c-0.2,1-0.4,1.8-0.5,2.5
		c-0.1,0.6-0.2,1.3-0.2,1.9c0,0.7,0.3,1.2,0.9,1.4c0.6,0.2,1.2,0.3,1.8,0.3c0.4,0,0.7,0,1,0s0.6-0.1,1-0.1l-0.7,3.9
		c-1.3,0.3-2.7,0.4-4.2,0.4c-2.8,0-4.3-1.5-4.4-4.4c0-0.4,0-0.7,0-1.1s0.1-0.7,0.1-1.1l-0.2-0.2c-1.4,2.4-3.5,4.3-6.1,5.6
		s-5.4,2-8.2,2c-1.9,0-3.7-0.2-5.3-0.6c-1.6-0.4-3-1.1-4.1-2s-2.1-2.1-2.7-3.5c-0.7-1.4-1-3.2-1-5.2c0-2.2,0.4-4,1.2-5.5
		c0.8-1.5,1.8-2.7,3.2-3.7s2.9-1.7,4.6-2.3s3.5-1,5.4-1.3c2.7-0.4,5.2-0.6,7.4-0.6c2.2,0,4.1-0.2,5.7-0.6c1.7-0.4,2.9-1.2,3.7-2.3
		c0.8-1.1,1.2-3,1.2-5.8c0-1.2-0.3-2.2-0.8-3c-0.6-0.8-1.3-1.4-2.1-1.8c-0.8-0.4-1.8-0.7-2.8-0.9s-2-0.2-3-0.2
		c-1.6,0-3.1,0.2-4.6,0.5c-1.4,0.3-2.7,0.8-3.9,1.6c-1.2,0.7-2.1,1.7-2.9,2.9s-1.3,2.7-1.6,4.4h-5
		C363.8,230.8,364.4,228.7,365.5,227z M388.2,239.8c-0.4,0.5-1,0.9-1.8,1.2s-1.6,0.5-2.4,0.7c-0.9,0.2-1.7,0.3-2.6,0.3
		c-0.9,0.1-1.6,0.1-2.3,0.2c-1.5,0.1-3.3,0.3-5.2,0.4c-1.9,0.2-3.7,0.6-5.3,1.2c-1.7,0.6-3,1.5-4.2,2.7c-1.1,1.2-1.7,2.9-1.7,5.1
		c0,1.3,0.3,2.5,0.8,3.4s1.2,1.7,2,2.3c0.9,0.6,1.8,1.1,3,1.3c1.1,0.3,2.3,0.4,3.4,0.4c4.1,0,7.3-1.1,9.8-3.3s4.2-5.1,5-8.8
		L388.2,239.8L388.2,239.8z"/>
	<path class="st4" d="M415,220.8l-2.1,9.5h0.2c1.6-3,3.6-5.4,5.9-7.3c2.3-1.9,5.4-2.8,9-2.8h1.4c0.3,0,0.5,0,0.7,0s0.4,0,0.6,0.1
		l-1.1,5c-0.5,0-1,0-1.4,0c-0.5,0-1,0-1.4,0c-2.2,0.1-4.2,0.5-6,1.4c-1.7,0.9-3.2,2-4.5,3.4s-2.3,3-3.2,4.8
		c-0.8,1.8-1.5,3.7-1.9,5.6l-4.6,21.6h-5l8.8-41.3H415z"/>
	<path class="st4" d="M440.9,220.8l2.6-12.5h5l-2.6,12.5h8.2l-0.8,4.2H445l-5.7,26.5c-0.2,1-0.4,1.7-0.4,2.2s-0.1,1.1-0.1,1.7
		c0,0.7,0.2,1.4,0.6,2s1.1,0.9,2,0.9c2,0,3.9-0.2,5.9-0.5l-0.9,4.3c-0.9,0.1-1.7,0.2-2.6,0.2c-0.9,0.1-1.7,0.1-2.6,0.1
		c-1,0-1.9-0.1-2.8-0.2s-1.7-0.4-2.4-0.8c-0.7-0.4-1.3-1-1.7-1.8c-0.4-0.8-0.6-1.8-0.6-3c0-0.4,0-1,0.1-1.8c0.1-0.7,0.2-1.6,0.4-2.5
		l5.7-27.4h-7.4l1-4.2L440.9,220.8L440.9,220.8z"/>
</g>
<g>
	<g>
		<g>
			<circle class="st5" cx="130.4" cy="420.6" r="55.5"/>
			<circle class="st6" cx="130.4" cy="420.6" r="22.5"/>
		</g>
		<g>
			<circle class="st5" cx="370.4" cy="420.6" r="55.5"/>
			<circle class="st6" cx="370.4" cy="420.6" r="22.5"/>
		</g>
	</g>
	<g>
		<path class="st5" d="M399.7,304.6l-264.1-21c-8.9-0.7-16.3-7.8-18.1-17.5L90,124.3c-2.7-13.8,6.8-26.8,19.6-26.8h325.9
			L399.7,304.6z"/>
		<path class="st7" d="M81.7,347.6h318h-1.5c13.5,0,24.5-11,24.5-24.5s-11-24.5-24.5-24.5h1.5l-243.5-19.4"/>
		<path class="st7" d="M331.1,93.6"/>
		<path class="st7" d="M345.6,95.4"/>
		<path class="st7" d="M418.2,148.6l23.4-106.7c0.4-2,1.9-3.7,3.9-4.4l39.6-13.7"/>
		<line class="st8" x1="377.4" y1="143.4" x2="353.7" y2="258.3"/>
		<line class="st8" x1="337.4" y1="143.4" x2="313.7" y2="254.3"/>
		<line class="st8" x1="297.4" y1="143.4" x2="273.7" y2="250.3"/>
		<line class="st8" x1="257.4" y1="143.4" x2="233.7" y2="246.3"/>
		<line class="st8" x1="217.4" y1="143.4" x2="193.7" y2="242.3"/>
		<line class="st8" x1="177.4" y1="143.4" x2="153.7" y2="238.3"/>
	</g>
</g>
<line class="st9" x1="253.5" y1="12.5" x2="253.5" y2="72.5"/>
<line class="st9" x1="303.8" y1="26.1" x2="283.3" y2="72.5"/>
<line class="st9" x1="348.9" y1="50.3" x2="318.1" y2="78.5"/>
<line class="st9" x1="203.3" y1="26.1" x2="223.8" y2="72.5"/>
<line class="st9" x1="158.1" y1="50.3" x2="188.9" y2="78.5"/>
</svg>
