<?xml version="1.0" encoding="utf-8"?>
<!-- Generator: Adobe Illustrator 21.0.1, SVG Export Plug-In . SVG Version: 6.00 Build 0)  -->
<svg version="1.1" id="レイヤー_1" xmlns="http://www.w3.org/2000/svg" xmlns:xlink="http://www.w3.org/1999/xlink" x="0px"
	 y="0px" viewBox="0 0 500 500" style="enable-background:new 0 0 500 500;" xml:space="preserve">
<style type="text/css">
	.st0{fill:#4A7703;}
	.st1{fill:#999999;}
	.st2{fill:none;stroke:#000000;stroke-width:3;stroke-linecap:round;stroke-miterlimit:10;}
</style>
<g>
	<g>
		
			<ellipse transform="matrix(0.6239 -0.7815 0.7815 0.6239 -116.4678 190.7651)" class="st0" cx="140" cy="216.4" rx="149.3" ry="90.2"/>
		
			<ellipse transform="matrix(0.782 -0.6233 0.6233 0.782 -66.9811 125.1277)" class="st1" cx="145.4" cy="158.3" rx="84.9" ry="52.6"/>
		<line class="st2" x1="31.5" y1="198.6" x2="116.4" y2="262"/>
		<line class="st2" x1="18.7" y1="216.9" x2="103.6" y2="280.2"/>
		<line class="st2" x1="4.1" y1="233.3" x2="89" y2="296.7"/>
	</g>
	<g>
		
			<ellipse transform="matrix(0.9621 -0.2727 0.2727 0.9621 -58.6368 112.9913)" class="st0" cx="377.2" cy="267.5" rx="90.2" ry="149.3"/>
		
			<ellipse transform="matrix(0.8774 -0.4798 0.4798 0.8774 -53.2348 215.3141)" class="st1" cx="394.6" cy="211.8" rx="52.6" ry="84.9"/>
		<line class="st2" x1="484.1" y1="293.1" x2="381.2" y2="318.6"/>
		<line class="st2" x1="488.8" y1="314.8" x2="385.9" y2="340.4"/>
		<line class="st2" x1="495.9" y1="335.6" x2="393" y2="361.2"/>
	</g>
</g>
</svg>
