<svg id="レイヤー_1" xmlns="http://www.w3.org/2000/svg" viewBox="0 0 500 500"><style>.st0{fill:#d1d1d1}.st1{fill:red}.st2{fill:#ccc}.st3{fill:#fff}</style><path class="st0" d="M250 439.9H128.8l-10-232.1L50.9 231 21 156.2l164.5-96.1c0 10.9 28.9 19.7 64.5 19.7s64.5-8.8 64.5-19.7L479 156.2l-29.9 74.7-67.9-23.2-10 232.1c0 .1-121.2.1-121.2.1z"/><path class="st1" d="M137.1 195.6l7.6-.7c.2 1.7.5 3 1 3.9.8 1.5 2 2.2 3.5 2.2 1.1 0 2-.4 2.6-1.1.6-.7.9-1.6.9-2.6 0-.9-.3-1.8-.9-2.5s-1.9-1.4-4.1-2.1c-3.5-1.1-6-2.6-7.5-4.4-1.5-1.8-2.3-4.1-2.3-7 0-1.9.4-3.6 1.2-5.3s1.9-2.9 3.5-3.9c1.5-.9 3.7-1.4 6.3-1.4 3.3 0 5.8.9 7.5 2.6 1.7 1.7 2.8 4.4 3.1 8.2l-7.5.6c-.2-1.6-.6-2.8-1.3-3.5s-1.5-1.1-2.6-1.1c-.9 0-1.6.3-2.1.8-.5.6-.7 1.2-.7 2 0 .6.2 1.1.6 1.6.4.5 1.3.9 2.7 1.3 3.5 1.1 6 2.1 7.5 3.2s2.6 2.4 3.3 4 1 3.4 1 5.3c0 2.3-.5 4.5-1.4 6.4-.9 2-2.2 3.4-3.8 4.4s-3.7 1.5-6.2 1.5c-4.4 0-7.4-1.2-9.1-3.5-1.6-2.3-2.6-5.3-2.8-8.9zm26.5-24.2h24.2v8.9h-8.1v27.2h-8v-27.2h-8.1v-8.9zm44.6 30.2h-9.1l-1.3 6h-8.1l9.7-36.1h8.7l9.7 36.1h-8.4l-1.2-6zm-1.6-7.9l-2.8-13-2.8 13h5.6zm14.7-22.3h7.4l9.7 20v-20h7.5v36.1h-7.5l-9.7-19.8v19.8h-7.5v-36.1h.1zm31 0h11.8c2.3 0 4.2.4 5.7 1.3 1.4.9 2.6 2.2 3.6 3.8.9 1.7 1.6 3.6 2 5.8s.6 4.5.6 7c0 3.9-.3 6.9-.9 9s-1.5 3.9-2.6 5.3-2.3 2.4-3.6 2.9c-1.7.7-3.3 1-4.8 1h-11.8v-36.1zm8 8.2v19.7h2c1.7 0 2.9-.3 3.6-.8s1.3-1.4 1.7-2.7c.4-1.3.6-3.4.6-6.3 0-3.8-.4-6.4-1.3-7.9-.9-1.4-2.4-2.1-4.4-2.1h-2.2v.1zm36.7 22h-9l-1.3 6h-8.1l9.7-36.1h8.7l9.7 36.1h-8.4l-1.3-6zm-1.6-7.9l-2.8-13-2.8 13h5.6zm14.8 13.8v-36.1h13.3c2.5 0 4.3.3 5.7.9 1.3.6 2.4 1.7 3.2 3.3.8 1.6 1.2 3.6 1.2 5.9 0 2-.3 3.7-.9 5.2s-1.5 2.6-2.5 3.5c-.7.6-1.6 1.1-2.8 1.4 1 .4 1.6.9 2.1 1.3.3.3.7.9 1.3 1.9.6 1 .9 1.7 1.1 2.2l3.9 10.5h-9l-4.3-11c-.5-1.4-1-2.4-1.4-2.8-.6-.6-1.2-.8-2-.8h-.7v14.7l-8.2-.1zm8-21.5h3.4c.4 0 1.1-.2 2.1-.5.5-.1 1-.5 1.3-1.1s.5-1.3.5-2.1c0-1.2-.3-2.1-.8-2.7-.5-.6-1.5-.9-3-.9h-3.5v7.3zm21-14.6H351c2.3 0 4.2.4 5.7 1.3 1.4.9 2.6 2.2 3.6 3.8.9 1.7 1.6 3.6 2 5.8s.6 4.5.6 7c0 3.9-.3 6.9-.9 9s-1.5 3.9-2.6 5.3-2.3 2.4-3.6 2.9c-1.7.7-3.3 1-4.8 1h-11.8v-36.1zm7.9 8.2v19.7h2c1.7 0 2.9-.3 3.6-.8s1.3-1.4 1.7-2.7c.4-1.3.6-3.4.6-6.3 0-3.8-.4-6.4-1.3-7.9-.9-1.4-2.4-2.1-4.4-2.1h-2.2v.1z"/><path class="st2" d="M0 0h500v500H0z"/><path class="st3" d="M94.8 205l-1 4.6H61l-4.4 20.6h30.6l-1 4.6H55.6l-4.8 22.6h33.6l-1 4.6h-39l12.1-57h38.3zm10.1 15.8l-1.6 7.2.2.2c1.5-2.4 3.5-4.4 6.1-6.1 2.6-1.7 5.4-2.5 8.5-2.5 2.9 0 5.2.7 7 2.2 1.8 1.5 2.8 3.7 3 6.6h.2c1.6-2.6 3.6-4.7 6.1-6.3 2.5-1.7 5.3-2.5 8.4-2.5 4 0 6.9 1 8.7 3 1.8 2 2.7 4.6 2.7 7.8 0 .7-.1 1.5-.2 2.3-.1.8-.2 1.6-.4 2.4l-5.8 26.9h-5l5.8-27c.3-1.4.5-2.8.5-4.2 0-2-.6-3.7-1.9-5-1.3-1.3-3.2-2-6-2-2.2 0-4.1.5-5.7 1.5-1.6 1-3 2.4-4.2 4.1-1.2 1.7-2.2 3.8-3 6.1s-1.5 4.8-2.1 7.5l-4.1 19h-5l5.8-26.9c.3-1.4.5-2.7.5-4 0-2-.5-3.8-1.6-5.2-1.1-1.4-2.9-2.2-5.3-2.2-1.8 0-3.5.5-5.2 1.4-1.7.9-3.1 2.1-4.5 3.7-1.3 1.5-2.5 3.4-3.5 5.5s-1.7 4.4-2.3 6.8l-4.5 21h-5l8.8-41.3h4.6zm69.4 0l-1.6 7.4h.2c1.8-2.7 3.8-4.8 6.1-6.4 2.3-1.5 5.3-2.3 8.9-2.3 2.7 0 5 .4 6.9 1.2 1.9.8 3.6 2 4.9 3.4 1.3 1.5 2.3 3.2 2.9 5.3.6 2.1 1 4.4 1 6.9 0 3.2-.5 6.4-1.6 9.6-1 3.2-2.5 6-4.5 8.6-2 2.5-4.3 4.6-7.1 6.2-2.8 1.6-5.9 2.4-9.4 2.4-1.6 0-3.1-.2-4.6-.5-1.5-.3-2.8-.9-4-1.6-1.2-.7-2.2-1.7-3-2.9-.8-1.2-1.3-2.6-1.6-4.3h-.2l-5 23.4h-5l12.1-56.5h4.6zm5.5 5.2c-2.2 1.5-4.1 3.3-5.6 5.6s-2.7 4.8-3.5 7.5c-.8 2.7-1.2 5.4-1.2 8 0 3.7 1 6.6 3 8.7 2 2.1 4.8 3.2 8.5 3.2 2.9 0 5.4-.7 7.6-2.2 2.2-1.4 4.1-3.3 5.5-5.5 1.5-2.2 2.6-4.7 3.3-7.4.7-2.7 1.1-5.3 1.1-7.8 0-3.5-.9-6.5-2.7-8.8-1.8-2.3-4.6-3.5-8.4-3.5-2.8 0-5.4.8-7.6 2.2zm40.7-5.2l2.6-12.5h5l-2.6 12.5h8.2l-.7 4.2h-8.4l-5.7 26.5c-.2 1-.4 1.7-.4 2.2s-.1 1.1-.1 1.7c0 .7.2 1.4.6 2 .4.6 1.1.9 2 .9 2 0 3.9-.2 5.9-.5l-.9 4.3c-.9.1-1.7.2-2.6.2-.9.1-1.7.1-2.6.1-1 0-1.9-.1-2.8-.2-.9-.1-1.7-.4-2.4-.8s-1.3-1-1.7-1.8c-.4-.8-.6-1.8-.6-3 0-.4 0-1 .1-1.8.1-.7.2-1.6.4-2.5l5.7-27.4h-7.4l1-4.2h7.4zm16.1 52.2c1.5 0 2.9-.5 3.9-1.4 1.1-1 1.9-2 2.6-3l3.8-6.5-7.6-41.3h5.3l5.9 35h.2l19-35h5.4l-29.4 51c-2.1 3.7-5.5 5.5-10 5.5-.7 0-1.4-.1-2.1-.2-.7-.1-1.5-.2-2.2-.2l1-4.1c1.4.2 2.8.2 4.2.2zm108.3-60.9c-2.9-2.5-6.7-3.7-11.5-3.7-4.3 0-8.1.9-11.2 2.7-3.2 1.8-5.8 4.1-8 7-2.1 2.9-3.7 6.2-4.8 9.9-1 3.7-1.6 7.5-1.6 11.4 0 2.9.4 5.6 1.3 7.9.9 2.3 2.1 4.4 3.7 6 1.6 1.7 3.6 3 6 3.9 2.3.9 5 1.4 7.9 1.4 2.2 0 4.4-.4 6.4-1.1 2.1-.7 3.9-1.8 5.6-3.2s3.1-3.1 4.4-5.1c1.3-2 2.2-4.2 2.9-6.7h5.4c-.6 2.9-1.7 5.7-3 8.2-1.4 2.5-3.1 4.7-5.3 6.6s-4.6 3.3-7.5 4.3c-2.9 1-6.2 1.6-9.8 1.6-3.7 0-7.1-.6-10-1.8-2.9-1.2-5.4-2.8-7.4-4.9-2-2.1-3.5-4.7-4.6-7.6-1-3-1.6-6.3-1.6-9.9 0-4.6.7-9 2.1-13.2 1.4-4.2 3.4-8 6.1-11.2 2.7-3.3 5.9-5.9 9.8-7.8 3.8-1.9 8.2-2.9 13.1-2.9 3 0 5.8.4 8.4 1.2 2.6.8 4.8 2 6.7 3.6 1.9 1.6 3.4 3.6 4.5 6s1.7 5.2 1.7 8.4h-5.4c.1-4.9-1.4-8.6-4.3-11zm20.6 14.9c1-1.7 2.3-3.1 3.9-4.2 1.5-1.1 3.3-1.9 5.3-2.4s4.1-.8 6.2-.8c1.4 0 2.9.1 4.6.4 1.7.3 3.2.7 4.7 1.4 1.4.7 2.6 1.6 3.6 2.8 1 1.2 1.4 2.7 1.4 4.6 0 1-.1 2.1-.3 3.4-.2 1.2-.4 2.5-.7 3.7-.3 1.3-.5 2.5-.8 3.7-.3 1.2-.5 2.3-.8 3.2-.5 2.3-.9 4.2-1.2 5.7-.3 1.5-.6 2.8-.8 3.8-.2 1-.4 1.8-.5 2.5-.1.6-.2 1.3-.2 1.9 0 .7.3 1.2.9 1.4.6.2 1.2.3 1.8.3h1c.3 0 .6-.1 1-.1l-.7 3.9c-1.3.3-2.7.4-4.2.4-2.8 0-4.3-1.5-4.4-4.4v-1.1c0-.4.1-.7.1-1.1l-.2-.2c-1.4 2.4-3.5 4.3-6.1 5.6-2.6 1.3-5.4 2-8.2 2-1.9 0-3.7-.2-5.3-.6-1.6-.4-3-1.1-4.1-2-1.1-.9-2.1-2.1-2.7-3.5-.7-1.4-1-3.2-1-5.2 0-2.2.4-4 1.2-5.5.8-1.5 1.8-2.7 3.2-3.7s2.9-1.7 4.6-2.3c1.7-.6 3.5-1 5.4-1.3 2.7-.4 5.2-.6 7.4-.6s4.1-.2 5.7-.6c1.7-.4 2.9-1.2 3.7-2.3.8-1.1 1.2-3 1.2-5.8 0-1.2-.3-2.2-.8-3-.6-.8-1.3-1.4-2.1-1.8-.8-.4-1.8-.7-2.8-.9s-2-.2-3-.2c-1.6 0-3.1.2-4.6.5-1.4.3-2.7.8-3.9 1.6-1.2.7-2.1 1.7-2.9 2.9-.8 1.2-1.3 2.7-1.6 4.4h-5c.3-2.7.9-4.8 2-6.5zm22.7 12.8c-.4.5-1 .9-1.8 1.2-.8.3-1.6.5-2.4.7-.9.2-1.7.3-2.6.3-.9.1-1.6.1-2.3.2-1.5.1-3.3.3-5.2.4-1.9.2-3.7.6-5.3 1.2-1.7.6-3 1.5-4.2 2.7-1.1 1.2-1.7 2.9-1.7 5.1 0 1.3.3 2.5.8 3.4.5.9 1.2 1.7 2 2.3.9.6 1.8 1.1 3 1.3 1.1.3 2.3.4 3.4.4 4.1 0 7.3-1.1 9.8-3.3 2.5-2.2 4.2-5.1 5-8.8l1.6-7-.1-.1zm26.8-19l-2.1 9.5h.2c1.6-3 3.6-5.4 5.9-7.3 2.3-1.9 5.4-2.8 9-2.8h2.1c.2 0 .4 0 .6.1l-1.1 5h-2.8c-2.2.1-4.2.5-6 1.4-1.7.9-3.2 2-4.5 3.4-1.3 1.4-2.3 3-3.2 4.8-.8 1.8-1.5 3.7-1.9 5.6l-4.6 21.6h-5l8.8-41.3h4.6zm25.9 0l2.6-12.5h5l-2.6 12.5h8.2l-.8 4.2H445l-5.7 26.5c-.2 1-.4 1.7-.4 2.2s-.1 1.1-.1 1.7c0 .7.2 1.4.6 2 .4.6 1.1.9 2 .9 2 0 3.9-.2 5.9-.5l-.9 4.3c-.9.1-1.7.2-2.6.2-.9.1-1.7.1-2.6.1-1 0-1.9-.1-2.8-.2-.9-.1-1.7-.4-2.4-.8s-1.3-1-1.7-1.8c-.4-.8-.6-1.8-.6-3 0-.4 0-1 .1-1.8.1-.7.2-1.6.4-2.5l5.7-27.4h-7.4l1-4.2h7.4z"/></svg>