<svg id="レイヤー_1" xmlns="http://www.w3.org/2000/svg" viewBox="0 0 500 500"><style>.st0{fill:#e5a157}.st1{fill:#d89341}.st2{fill:#a05e17}</style><path class="st0" d="M248.4 155.4s185.7 33.2 241.7 165.2l-51.8 26.1s-32.8-59.1-88-57.2l-12 119.3H158.5l-12-119.3c-55.2-1.8-88 57.2-88 57.2L6.6 319.4c56-132 241.7-164 241.8-164"/><path class="st1" d="M334.2 188.2H162.4c-8.8 0-16-7.2-16-16v-40.9c0-22.1 17.9-40 40-40h123.8c22.1 0 40 17.9 40 40v40.9c0 8.8-7.1 16-16 16z"/><circle class="st2" cx="248.3" cy="156.6" r="7.5"/><circle class="st2" cx="248.3" cy="122.9" r="7.5"/><path class="st2" d="M240.8 206.6h7.5v61.6h-7.5zm0 75.1h7.5v61.6h-7.5zm0 74.1h7.5v35.6h-7.5z"/></svg>