<?xml version="1.0" encoding="utf-8"?>
<!-- Generator: Adobe Illustrator 21.0.1, SVG Export Plug-In . SVG Version: 6.00 Build 0)  -->
<svg version="1.1" id="レイヤー_1" xmlns="http://www.w3.org/2000/svg" xmlns:xlink="http://www.w3.org/1999/xlink" x="0px"
	 y="0px" viewBox="0 0 500 500" style="enable-background:new 0 0 500 500;" xml:space="preserve">
<style type="text/css">
	.st0{fill:#D1D1D1;}
	.st1{fill:#FF0000;}
</style>
<path class="st0" d="M250,439.9H128.8l-10-232.1L50.9,231L21,156.2l164.5-96.1c0,10.9,28.9,19.7,64.5,19.7s64.5-8.8,64.5-19.7
	L479,156.2l-29.9,74.7l-67.9-23.2l-10,232.1C371.2,439.9,250,439.9,250,439.9L250,439.9z"/>
<path class="st1" d="M137.1,195.6l7.6-0.7c0.2,1.7,0.5,3,1,3.9c0.8,1.5,2,2.2,3.5,2.2c1.1,0,2-0.4,2.6-1.1c0.6-0.7,0.9-1.6,0.9-2.6
	c0-0.9-0.3-1.8-0.9-2.5s-1.9-1.4-4.1-2.1c-3.5-1.1-6-2.6-7.5-4.4c-1.5-1.8-2.3-4.1-2.3-7c0-1.9,0.4-3.6,1.2-5.3s1.9-2.9,3.5-3.9
	c1.5-0.9,3.7-1.4,6.3-1.4c3.3,0,5.8,0.9,7.5,2.6c1.7,1.7,2.8,4.4,3.1,8.2l-7.5,0.6c-0.2-1.6-0.6-2.8-1.3-3.5s-1.5-1.1-2.6-1.1
	c-0.9,0-1.6,0.3-2.1,0.8c-0.5,0.6-0.7,1.2-0.7,2c0,0.6,0.2,1.1,0.6,1.6c0.4,0.5,1.3,0.9,2.7,1.3c3.5,1.1,6,2.1,7.5,3.2
	s2.6,2.4,3.3,4s1,3.4,1,5.3c0,2.3-0.5,4.5-1.4,6.4c-0.9,2-2.2,3.4-3.8,4.4s-3.7,1.5-6.2,1.5c-4.4,0-7.4-1.2-9.1-3.5
	C138.3,202.2,137.3,199.2,137.1,195.6z M163.6,171.4h24.2v8.9h-8.1v27.2h-8v-27.2h-8.1L163.6,171.4L163.6,171.4z M208.2,201.6h-9.1
	l-1.3,6h-8.1l9.7-36.1h8.7l9.7,36.1h-8.4L208.2,201.6L208.2,201.6z M206.6,193.7l-2.8-13l-2.8,13H206.6z M221.3,171.4h7.4l9.7,20
	v-20h7.5v36.1h-7.5l-9.7-19.8v19.8h-7.5v-36.1L221.3,171.4z M252.3,171.4h11.8c2.3,0,4.2,0.4,5.7,1.3c1.4,0.9,2.6,2.2,3.6,3.8
	c0.9,1.7,1.6,3.6,2,5.8s0.6,4.5,0.6,7c0,3.9-0.3,6.9-0.9,9s-1.5,3.9-2.6,5.3s-2.3,2.4-3.6,2.9c-1.7,0.7-3.3,1-4.8,1h-11.8
	L252.3,171.4L252.3,171.4z M260.3,179.6v19.7h2c1.7,0,2.9-0.3,3.6-0.8s1.3-1.4,1.7-2.7c0.4-1.3,0.6-3.4,0.6-6.3
	c0-3.8-0.4-6.4-1.3-7.9c-0.9-1.4-2.4-2.1-4.4-2.1h-2.2L260.3,179.6z M297,201.6h-9l-1.3,6h-8.1l9.7-36.1h8.7l9.7,36.1h-8.4
	L297,201.6L297,201.6z M295.4,193.7l-2.8-13l-2.8,13H295.4L295.4,193.7z M310.2,207.5v-36.1h13.3c2.5,0,4.3,0.3,5.7,0.9
	c1.3,0.6,2.4,1.7,3.2,3.3c0.8,1.6,1.2,3.6,1.2,5.9c0,2-0.3,3.7-0.9,5.2s-1.5,2.6-2.5,3.5c-0.7,0.6-1.6,1.1-2.8,1.4
	c1,0.4,1.6,0.9,2.1,1.3c0.3,0.3,0.7,0.9,1.3,1.9c0.6,1,0.9,1.7,1.1,2.2l3.9,10.5h-9l-4.3-11c-0.5-1.4-1-2.4-1.4-2.8
	c-0.6-0.6-1.2-0.8-2-0.8h-0.7v14.7L310.2,207.5L310.2,207.5z M318.2,186h3.4c0.4,0,1.1-0.2,2.1-0.5c0.5-0.1,1-0.5,1.3-1.1
	s0.5-1.3,0.5-2.1c0-1.2-0.3-2.1-0.8-2.7c-0.5-0.6-1.5-0.9-3-0.9h-3.5V186z M339.2,171.4H351c2.3,0,4.2,0.4,5.7,1.3
	c1.4,0.9,2.6,2.2,3.6,3.8c0.9,1.7,1.6,3.6,2,5.8s0.6,4.5,0.6,7c0,3.9-0.3,6.9-0.9,9s-1.5,3.9-2.6,5.3s-2.3,2.4-3.6,2.9
	c-1.7,0.7-3.3,1-4.8,1h-11.8L339.2,171.4L339.2,171.4z M347.1,179.6v19.7h2c1.7,0,2.9-0.3,3.6-0.8s1.3-1.4,1.7-2.7
	c0.4-1.3,0.6-3.4,0.6-6.3c0-3.8-0.4-6.4-1.3-7.9c-0.9-1.4-2.4-2.1-4.4-2.1h-2.2L347.1,179.6z"/>
</svg>
